<?xml version="1.0" encoding="UTF-8" standalone="no"?>
<!DOCTYPE svg PUBLIC "-//W3C//DTD SVG 1.1//EN" "http://www.w3.org/Graphics/SVG/1.1/DTD/svg11.dtd">
<svg xmlns="http://www.w3.org/2000/svg" version="1.1" viewBox="0.00 0.00 48.00 48.00">
<path fill="#000000" d="
  M 0.00 0.00
  L 7.30 0.00
  Q 7.73 1.23 7.44 2.46
  A 0.70 0.69 6.2 0 1 6.76 3.00
  L 3.75 3.00
  Q 3.00 3.00 3.00 3.75
  L 3.00 44.25
  Q 3.00 45.00 3.75 45.00
  L 6.76 45.00
  A 0.69 0.68 -7.8 0 1 7.42 45.50
  Q 7.79 46.83 7.21 48.00
  L 0.00 48.00
  L 0.00 0.00
  Z"
/>
<path fill="#000000" d="
  M 40.79 0.00
  L 48.00 0.00
  L 48.00 48.00
  L 40.70 48.00
  Q 40.26 46.74 40.56 45.53
  A 0.70 0.70 0.0 0 1 41.24 45.00
  L 44.25 45.00
  Q 45.00 45.00 45.00 44.25
  L 45.00 3.62
  Q 45.00 3.00 44.37 3.00
  L 41.30 3.00
  Q 40.77 3.00 40.62 2.49
  Q 40.21 1.11 40.79 0.00
  Z"
/>
<path fill="#000000" d="
  M 15.81 17.65
  C 18.38 14.40 22.25 14.86 24.99 17.77
  Q 25.37 18.17 25.75 17.76
  C 29.44 13.74 36.70 15.07 36.55 21.25
  Q 36.41 26.81 36.59 32.37
  Q 36.61 33.00 35.98 33.00
  L 32.66 33.00
  A 0.59 0.59 0.0 0 1 32.07 32.42
  L 31.84 21.12
  A 0.95 0.95 0.0 0 0 31.65 20.58
  C 29.62 17.99 25.93 19.08 26.01 22.51
  Q 26.11 27.43 25.94 32.36
  A 0.66 0.66 0.0 0 1 25.28 33.00
  L 21.97 33.00
  A 0.72 0.72 0.0 0 1 21.25 32.27
  C 21.26 29.67 21.87 22.33 20.67 20.32
  C 19.57 18.46 16.40 19.03 15.56 21.04
  C 14.63 23.26 15.25 29.70 15.25 32.38
  A 0.62 0.61 -0.5 0 1 14.64 32.99
  L 11.13 33.01
  Q 10.50 33.01 10.50 32.38
  L 10.50 16.42
  A 0.65 0.64 90.0 0 1 11.14 15.77
  L 14.02 15.74
  A 0.91 0.91 0.0 0 1 14.91 16.47
  L 15.10 17.48
  Q 15.27 18.33 15.81 17.65
  Z"
/>
</svg>
