<?xml version="1.0" encoding="UTF-8" standalone="no"?>
<!DOCTYPE svg PUBLIC "-//W3C//DTD SVG 1.1//EN" "http://www.w3.org/Graphics/SVG/1.1/DTD/svg11.dtd">
<svg xmlns="http://www.w3.org/2000/svg" version="1.1" viewBox="0.00 0.00 1260.00 255.00">
<path fill="#8230a9" d="
  M 125.36 117.78
  L 60.44 182.69
  A 0.35 0.35 0.0 0 1 59.94 182.69
  L 43.87 166.19
  A 0.35 0.35 0.0 0 1 43.87 165.70
  L 91.69 117.71
  A 0.35 0.35 0.0 0 0 91.69 117.21
  L 43.63 69.15
  A 0.35 0.35 0.0 0 1 43.63 68.65
  L 60.29 52.38
  A 0.35 0.35 0.0 0 1 60.78 52.39
  L 125.36 117.28
  A 0.35 0.35 0.0 0 1 125.36 117.78
  Z"
/>
<path fill="#8230a9" d="
  M 978.78 190.01
  C 919.11 177.76 919.43 82.38 981.31 72.31
  Q 991.20 70.70 1001.25 71.66
  C 1040.31 75.37 1058.81 113.57 1049.80 148.83
  C 1041.38 181.79 1010.74 196.57 978.78 190.01
  Z
  M 955.73 95.22
  C 940.01 113.35 939.46 142.92 952.52 162.55
  Q 963.93 179.71 986.25 182.61
  C 1024.20 187.54 1048.61 156.36 1042.26 120.51
  C 1038.54 99.45 1024.99 84.22 1004.05 80.50
  C 986.58 77.39 967.80 81.29 955.73 95.22
  Z"
/>
<path fill="#8230a9" d="
  M 275.63 189.41
  Q 275.18 189.60 275.08 189.61
  A 1.43 1.43 0.0 0 1 273.50 188.19
  L 273.50 73.50
  A 0.50 0.50 0.0 0 1 274.00 73.00
  L 281.75 73.00
  A 0.76 0.76 0.0 0 1 282.51 73.76
  L 282.48 189.02
  Q 282.48 190.07 281.47 189.77
  L 280.09 189.36
  A 1.05 1.01 -41.4 0 0 279.60 189.34
  Q 277.92 189.74 276.25 189.35
  Q 275.93 189.28 275.63 189.41
  Z"
/>
<circle fill="#8230a9" cx="714.52" cy="80.48" r="6.51"/>
<path fill="#8230a9" d="
  M 418.25 107.25
  L 444.75 107.25
  A 1.00 1.00 0.0 0 1 445.75 108.25
  L 445.75 112.72
  A 1.53 1.53 0.0 0 1 444.22 114.25
  L 418.28 114.27
  Q 417.72 114.27 417.72 114.82
  Q 417.78 141.20 417.80 167.49
  C 417.82 184.55 432.92 186.34 444.89 180.05
  Q 445.43 179.77 445.65 180.33
  L 448.03 186.13
  Q 448.23 186.60 447.77 186.84
  C 436.69 192.46 419.55 193.40 412.83 180.64
  Q 409.46 174.26 409.43 164.32
  Q 409.34 139.63 409.61 114.94
  Q 409.62 114.30 408.97 114.30
  L 401.47 114.27
  A 0.60 0.58 -30.0 0 1 401.19 114.20
  Q 400.25 113.71 399.44 114.44
  A 0.65 0.65 0.0 0 1 398.56 114.45
  Q 397.62 113.60 396.51 114.37
  A 0.90 0.88 -45.6 0 1 395.51 114.39
  Q 394.29 113.58 393.13 114.59
  A 0.52 0.52 0.0 0 1 392.26 114.20
  L 392.25 108.00
  Q 392.24 107.23 393.00 107.24
  L 409.00 107.28
  Q 409.53 107.28 409.53 106.75
  L 409.49 83.79
  Q 409.48 83.31 409.96 83.26
  L 417.04 82.42
  A 0.64 0.63 -3.2 0 1 417.75 83.05
  L 417.75 106.75
  Q 417.75 107.25 418.25 107.25
  Z"
/>
<path fill="#8230a9" d="
  M 372.51 138.49
  C 371.22 119.20 353.75 110.59 336.31 114.79
  C 326.36 117.18 319.37 123.93 316.17 133.51
  Q 314.83 137.50 314.80 144.55
  Q 314.71 166.73 314.76 188.95
  A 0.53 0.52 -90.0 0 1 314.24 189.48
  L 307.07 189.56
  Q 306.51 189.57 306.51 189.01
  L 306.49 108.00
  Q 306.49 107.25 307.25 107.25
  L 314.02 107.25
  A 0.59 0.58 0.0 0 1 314.61 107.83
  L 314.52 120.92
  A 0.40 0.40 0.0 0 0 315.27 121.11
  C 326.51 100.64 360.57 101.37 373.85 119.16
  C 379.01 126.08 380.94 134.80 380.97 143.37
  Q 381.06 166.14 380.97 188.91
  Q 380.97 189.35 380.53 189.36
  L 373.58 189.50
  Q 373.03 189.51 373.02 188.96
  C 372.97 172.20 373.63 155.17 372.51 138.49
  Z"
/>
<path fill="#8230a9" d="
  M 745.01 126.90
  C 755.35 107.72 778.43 101.26 798.09 109.07
  C 832.79 122.86 832.19 178.36 794.21 189.08
  C 780.37 192.99 764.78 190.52 753.81 181.09
  C 738.74 168.12 735.66 144.21 745.01 126.90
  Z
  M 766.99 116.68
  C 757.14 120.92 750.51 130.38 748.61 140.77
  C 745.02 160.49 754.76 179.28 775.76 182.29
  Q 791.97 184.61 803.66 175.28
  C 818.44 163.48 818.78 139.54 807.43 125.33
  C 797.89 113.38 780.52 110.84 766.99 116.68
  Z"
/>
<path fill="#8230a9" d="
  M 850.30 120.99
  A 0.36 0.36 0.0 0 0 850.97 121.17
  Q 853.72 116.29 857.84 112.91
  C 869.59 103.24 889.80 103.99 901.93 112.02
  C 911.76 118.52 916.69 130.09 916.72 142.35
  Q 916.78 165.54 916.74 188.92
  A 0.46 0.45 -90.0 0 1 916.29 189.38
  L 910.12 189.46
  Q 908.52 189.48 908.52 187.89
  Q 908.49 164.74 908.51 142.00
  C 908.51 133.23 905.12 123.15 897.22 118.52
  C 880.59 108.75 858.26 114.21 851.86 133.43
  Q 850.56 137.35 850.53 144.38
  Q 850.46 166.66 850.51 188.97
  Q 850.51 189.50 849.99 189.49
  L 842.85 189.45
  Q 842.25 189.45 842.25 188.85
  L 842.25 107.75
  Q 842.25 107.25 842.75 107.25
  L 848.98 107.25
  A 1.53 1.53 0.0 0 1 850.51 108.80
  L 850.30 120.99
  Z"
/>
<path fill="#8230a9" d="
  M 634.30 133.08
  C 636.63 137.86 643.88 141.17 648.93 142.06
  Q 659.11 143.86 669.24 145.78
  C 677.45 147.35 687.07 151.17 690.52 159.17
  C 696.52 173.06 687.25 184.58 674.38 188.59
  C 656.71 194.09 634.44 190.60 622.67 174.92
  Q 622.36 174.50 622.75 174.16
  L 627.91 169.73
  Q 628.42 169.29 628.83 169.81
  Q 636.72 179.69 648.24 182.04
  C 658.86 184.20 684.45 183.94 684.09 166.94
  C 683.91 158.54 675.19 154.57 667.83 153.20
  Q 656.50 151.09 645.23 148.63
  C 635.68 146.55 627.00 142.05 625.60 131.50
  C 624.38 122.31 628.64 115.12 636.69 110.86
  C 651.79 102.86 675.96 104.54 688.30 116.97
  Q 688.60 117.27 688.30 117.58
  L 684.06 121.81
  A 0.81 0.80 41.7 0 1 682.98 121.87
  C 672.17 113.05 658.09 111.87 644.92 115.62
  C 637.40 117.76 630.19 124.60 634.30 133.08
  Z"
/>
<path fill="#8230a9" d="
  M 1173.93 131.61
  C 1171.82 117.56 1183.39 109.15 1195.77 107.00
  C 1210.22 104.49 1224.93 106.77 1236.13 116.38
  A 1.04 1.03 42.4 0 1 1236.20 117.89
  L 1232.41 121.79
  Q 1232.04 122.17 1231.61 121.86
  C 1219.49 113.21 1205.78 111.51 1191.76 116.03
  C 1186.11 117.86 1181.21 122.88 1181.54 129.07
  C 1182.77 151.74 1237.62 135.23 1240.23 164.76
  C 1242.61 191.59 1208.56 193.81 1191.00 188.75
  Q 1178.74 185.21 1171.07 174.79
  A 0.56 0.56 0.0 0 1 1171.17 174.03
  L 1176.31 169.73
  Q 1176.70 169.41 1177.01 169.80
  C 1187.27 182.17 1201.49 184.70 1216.68 182.29
  C 1221.93 181.46 1228.26 178.22 1230.85 173.47
  C 1235.01 165.81 1231.22 158.01 1222.95 155.28
  C 1205.90 149.65 1176.92 151.50 1173.93 131.61
  Z"
/>
<path fill="#8230a9" d="
  M 1080.67 125.63
  Q 1082.10 123.47 1083.55 121.35
  C 1094.61 105.25 1119.31 102.62 1135.31 111.52
  C 1154.69 122.31 1159.74 147.10 1152.05 166.89
  C 1147.62 178.28 1138.95 185.51 1127.27 189.05
  C 1108.52 194.74 1090.23 188.22 1080.28 171.37
  A 0.29 0.28 29.9 0 0 1079.75 171.51
  L 1079.75 223.37
  Q 1079.75 224.00 1079.12 224.00
  L 1072.63 224.00
  Q 1072.00 224.00 1072.00 223.37
  L 1072.00 107.75
  Q 1072.00 107.25 1072.50 107.25
  L 1079.50 107.25
  A 0.50 0.50 0.0 0 1 1080.00 107.75
  L 1080.00 125.43
  A 0.37 0.36 -28.4 0 0 1080.67 125.63
  Z
  M 1081.02 141.72
  C 1075.66 170.89 1102.66 191.91 1129.81 179.78
  C 1145.64 172.71 1149.81 153.67 1146.06 138.19
  Q 1141.17 117.98 1120.48 114.67
  C 1101.17 111.59 1084.64 122.05 1081.02 141.72
  Z"
/>
<path fill="#8230a9" d="
  M 472.40 121.01
  A 0.31 0.31 0.0 0 0 472.98 121.16
  C 482.02 105.59 502.21 102.76 516.97 111.14
  Q 517.44 111.41 517.17 111.89
  L 514.10 117.35
  A 0.76 0.75 28.0 0 1 513.10 117.65
  C 498.35 110.29 479.43 116.24 474.03 132.50
  Q 472.73 136.43 472.75 143.65
  Q 472.82 166.29 472.68 188.92
  Q 472.68 189.38 472.22 189.38
  L 465.10 189.45
  Q 464.49 189.46 464.49 188.85
  L 464.51 107.74
  Q 464.51 107.25 465.01 107.25
  L 471.45 107.25
  A 0.71 0.71 0.0 0 1 472.16 107.95
  L 472.40 121.01
  Z"
/>
<rect fill="#8230a9" x="710.26" y="107.01" width="8.24" height="82.48" rx="0.50"/>
<path fill="#8230a9" d="
  M 597.23 175.53
  C 596.26 176.55 595.57 178.16 594.78 179.05
  C 584.95 190.09 572.32 192.64 558.03 189.66
  C 538.55 185.59 531.33 170.11 531.28 151.73
  Q 531.21 129.91 531.26 108.22
  A 0.98 0.98 0.0 0 1 532.24 107.25
  L 538.98 107.25
  Q 539.45 107.25 539.45 107.72
  Q 539.53 131.50 539.54 155.25
  C 539.55 194.27 597.20 190.94 597.48 153.74
  Q 597.55 144.43 597.48 107.80
  Q 597.48 107.25 598.03 107.25
  L 605.10 107.26
  A 0.65 0.65 0.0 0 1 605.75 107.91
  L 605.75 188.93
  Q 605.75 189.36 605.32 189.37
  L 598.32 189.52
  A 0.70 0.70 0.0 0 1 597.60 188.82
  L 597.70 175.72
  A 0.27 0.27 0.0 0 0 597.23 175.53
  Z"
/>
<rect fill="#8230a9" x="128.84" y="162.51" width="109.16" height="23.76" rx="0.43"/>
</svg>
